<svg width="24" height="24" viewBox="0 0 24 24" fill="none" xmlns="http://www.w3.org/2000/svg">
<g clip-path="url(#clip0_3064_22861)">
<path d="M20.0344 7.71564L14.7844 2.46564C14.6415 2.32635 14.4495 2.24889 14.25 2.25001H5.25C4.85218 2.25001 4.47064 2.40805 4.18934 2.68935C3.90804 2.97066 3.75 3.35219 3.75 3.75001V20.25C3.75 20.6478 3.90804 21.0294 4.18934 21.3107C4.47064 21.592 4.85218 21.75 5.25 21.75H18.75C19.1478 21.75 19.5294 21.592 19.8107 21.3107C20.092 21.0294 20.25 20.6478 20.25 20.25V8.25001C20.2511 8.05048 20.1737 7.85851 20.0344 7.71564V7.71564ZM15.1594 15.1594L12.5344 17.7844C12.391 17.923 12.1994 18.0005 12 18.0005C11.8006 18.0005 11.609 17.923 11.4656 17.7844L8.84063 15.1594C8.72103 15.0137 8.65991 14.8287 8.66916 14.6404C8.6784 14.4521 8.75736 14.274 8.89066 14.1407C9.02396 14.0074 9.20208 13.9284 9.39037 13.9192C9.57866 13.9099 9.76365 13.971 9.90937 14.0906L11.25 15.4406V11.25C11.25 11.0511 11.329 10.8603 11.4697 10.7197C11.6103 10.579 11.8011 10.5 12 10.5C12.1989 10.5 12.3897 10.579 12.5303 10.7197C12.671 10.8603 12.75 11.0511 12.75 11.25V15.4406L14.0906 14.0906C14.2363 13.971 14.4213 13.9099 14.6096 13.9192C14.7979 13.9284 14.976 14.0074 15.1093 14.1407C15.2426 14.274 15.3216 14.4521 15.3308 14.6404C15.3401 14.8287 15.279 15.0137 15.1594 15.1594V15.1594ZM14.25 8.25001V4.12501L18.375 8.25001H14.25Z" fill="#007AFF"/>
</g>
<defs>
<clipPath id="clip0_3064_22861">
<rect width="24" height="24" fill="white"/>
</clipPath>
</defs>
</svg>
