<svg id="Layer_1" data-name="Layer 1" xmlns="http://www.w3.org/2000/svg" viewBox="0 0 36 36"><defs><style>.cls-1{fill:#92d55c;}.cls-2{fill:#fff;fill-rule:evenodd;}</style></defs><g id="Page-1"><g id="Launch---Onboarding-NDA-2---Select-Carriers"><g id="Group"><circle id="Oval" class="cls-1" cx="18" cy="18" r="18"/><g id="Group-3"><path id="Fill-1" class="cls-2" d="M16,23.92a.8.8,0,0,1-.6-.25l-5.11-5.1a.86.86,0,0,1,0-1.21.83.83,0,0,1,.61-.26.79.79,0,0,1,.6.26l4.21,4.2a.4.4,0,0,0,.29.12.42.42,0,0,0,.3-.12l9.3-9.31a.86.86,0,0,1,.61-.25.85.85,0,0,1,.85.87.87.87,0,0,1-.24.59L16.57,23.67a.82.82,0,0,1-.61.25"/></g></g></g></g></svg>