<?xml version="1.0" encoding="UTF-8"?>
<svg width="14px" height="14px" viewBox="0 0 14 14" version="1.1" xmlns="http://www.w3.org/2000/svg" xmlns:xlink="http://www.w3.org/1999/xlink">
    <title>BE628E0D-4AF9-4E88-9E64-30B9CDA96545</title>
    <g id="Page-1" stroke="none" stroke-width="1" fill="none" fill-rule="evenodd">
        <g id="Dashboard---Add-Test-Devices" transform="translate(-1040.000000, -1003.000000)" fill="#007AFF">
            <path d="M1051.94375,1005.05625 C1050.675,1003.7875 1048.93375,1003 1047,1003 C1043.13425,1003 1040,1006.13425 1040,1010 C1040,1013.86575 1043.13425,1017 1047,1017 C1050.26375,1017 1052.985,1014.76875 1053.76375,1011.75 L1051.94375,1011.75 C1051.22625,1013.78875 1049.28375,1015.25 1047,1015.25 C1044.10025,1015.25 1041.75,1012.89975 1041.75,1010 C1041.75,1007.10025 1044.10025,1004.75 1047,1004.75 C1048.4525,1004.75 1049.7475,1005.35375 1050.6925,1006.3075 L1047.875,1009.125 L1054,1009.125 L1054,1003 L1051.94375,1005.05625 Z" id="refresh"></path>
        </g>
    </g>
</svg>